<svg xmlns="http://www.w3.org/2000/svg" width="531" height="72" fill="none" viewBox="0 0 531 72"><path fill="#FEFEFE" d="M37.1774 2.26276L2.19872 35.69L0.412176 33.8094L35.3908 0.382183L37.2244 0.429198L37.1774 2.26276ZM35.3908 0.382183C35.908 -0.134975 36.7543 -0.134975 37.2244 0.429198C37.7416 0.946355 37.7416 1.7456 37.1774 2.26276L35.3908 0.382183ZM69.1471 37.6175L35.3438 2.21574L37.2244 0.429198L71.0747 35.784L71.0277 37.6175H69.1471ZM71.0747 35.784C71.5449 36.3011 71.5449 37.1474 71.0277 37.6175C70.5106 38.1347 69.6643 38.1347 69.1471 37.6175L71.0747 35.784ZM34.2155 69.2112L69.1942 35.737L71.0277 37.6175L36.002 71.0917L34.1685 71.0447L34.2155 69.2112ZM36.002 71.0917C35.4849 71.6089 34.6386 71.5619 34.1685 71.0447C33.6513 70.5276 33.6983 69.6813 34.2155 69.2112L36.002 71.0917ZM2.24574 33.8564L36.049 69.2582L34.1685 71.0447L0.365161 35.69L0.412176 33.8094L2.24574 33.8564ZM0.365161 35.69C-0.151996 35.1728 -0.104982 34.3265 0.412176 33.8094C0.929334 33.3392 1.72858 33.3392 2.24574 33.8564L0.365161 35.69Z"/><path fill="#FEFEFE" d="M43.3832 28.4496L41.5027 30.2362L40.0452 28.7787L38.6348 27.3213L37.2244 25.9579L35.8139 24.5944L34.4035 23.278L33.0401 22.0087L31.6767 20.7863L30.2662 19.6109L28.9498 18.4826L27.6334 17.4013L26.317 16.3669L25.0006 15.3796L23.7783 14.4393L22.5089 13.5461L21.3335 12.7468L20.1582 11.9946L19.0298 11.2424L17.9485 10.6312L16.8671 10.02L15.8798 9.50284L14.9396 9.0327L13.9993 8.65659L13.153 8.32749L12.3538 8.0454L11.6486 7.85734L10.9904 7.76331L10.3792 7.66928H9.90903L9.4859 7.7163L9.1568 7.81033L8.92172 7.95137L8.73367 8.09241L6.94712 6.21184L7.55831 5.7417L8.26352 5.36558L8.96874 5.17752L9.72097 5.0835H10.5202L11.3665 5.17752L12.2127 5.31857L13.106 5.55364L14.0463 5.88274L14.9866 6.25885L16.0209 6.68198L17.0552 7.15213L18.1365 7.7163L19.2649 8.3745L20.3932 9.0327L21.5686 9.78493L22.791 10.5842L24.0133 11.4304L25.2827 12.3237L26.5991 13.311L27.9155 14.2983L29.2319 15.3796L30.5953 16.461L31.9588 17.6363L33.3692 18.8587L34.7796 20.0811L36.19 21.3975L37.6005 22.7139L39.0579 24.0773L40.4683 25.4877L41.9258 26.9452L43.3832 28.4496ZM63.9285 65.826L62.142 63.9455L62.283 63.7574L62.424 63.5223L62.5181 63.1932L62.6121 62.8171V62.2999L62.5651 61.7358L62.4711 61.0776L62.33 60.3253L62.0949 59.5261L61.8129 58.6328L61.4367 57.7396L61.0606 56.7523L60.5435 55.7179L60.0263 54.6366L59.4151 53.5083L58.7569 52.3799L58.0517 51.1576L57.2995 49.9352L56.4532 48.6658L55.607 47.3494L54.6667 46.033L53.6794 44.6696L52.6451 43.3062L51.6107 41.8957L50.4824 40.4853L49.307 39.0279L48.0847 37.6174L46.8623 36.16L45.5929 34.6555L44.2295 33.1981L42.8661 31.7406L41.5027 30.2362L43.3832 28.4496L44.7937 29.9541L46.1571 31.4585L47.5205 32.963L48.8369 34.4204L50.1063 35.9249L51.3287 37.3823L52.504 38.8398L53.6324 40.2972L54.7607 41.7077L55.795 43.1181L56.7823 44.5285L57.7226 45.8919L58.6159 47.2083L59.4621 48.5247L60.2614 49.7941L61.0136 51.0635L61.7188 52.2859L62.33 53.4613L62.8942 54.5896L63.4113 55.6709L63.8815 56.7523L64.2576 57.7866L64.5867 58.7739L64.8688 59.7142L65.0568 60.6074L65.1509 61.4537L65.2449 62.2999L65.1979 63.0992L65.0568 63.8514L64.8218 64.5566L64.4457 65.2148L63.9285 65.826ZM27.5394 43.5882L29.42 41.7547L30.8304 43.2591L32.2408 44.6696L33.6513 46.08L35.0617 47.3964L36.4721 48.7128L37.8826 49.9822L39.246 51.2046L40.6094 52.3799L41.9728 53.5553L43.2892 54.6366L44.6056 55.6709L45.875 56.6582L47.1444 57.5515L48.3668 58.4448L49.5421 59.291L50.7175 60.0433L51.8458 60.7485L52.9742 61.4067L54.0085 61.9708L54.9958 62.488L55.9831 62.9581L56.8764 63.3813L57.7226 63.7104L58.5219 63.9455L59.2741 64.1335L59.9323 64.2746L60.4965 64.3216H61.0136L61.3897 64.2746L61.7188 64.1805L61.9539 64.0865L62.142 63.9455L63.9285 65.826L63.3173 66.2962L62.6591 66.6253L61.9069 66.8603L61.1547 66.9544H60.3554L59.5562 66.8603L58.6629 66.6723L57.7696 66.4372L56.8764 66.1551L55.8891 65.779L54.9017 65.3559L53.8674 64.8387L52.7861 64.2746L51.6578 63.6634L50.4824 62.9581L49.307 62.2529L48.1317 61.4537L46.8623 60.6074L45.5929 59.6671L44.3235 58.7269L43.0071 57.6925L41.6437 56.6582L40.2803 55.5299L38.9169 54.4015L37.5064 53.1792L36.096 51.9098L34.6856 50.6404L33.2752 49.324L31.8647 47.9136L30.4073 46.5031L28.9498 45.0457L27.5394 43.5882ZM6.94712 6.21184L8.73367 8.09241L8.59262 8.23346L8.49859 8.46853L8.35755 8.79763L8.31054 9.22076L8.26352 9.6909L8.31054 10.3021L8.40457 10.9603L8.59262 11.6655L8.78068 12.5118L9.06277 13.358L9.43888 14.2983L9.86201 15.2856L10.3322 16.2729L10.8493 17.3542L11.4605 18.4826L12.1187 19.6579L12.8239 20.8333L13.6232 22.1027L14.4224 23.3721L15.3157 24.6415L16.256 26.0049L17.1962 27.3213L18.2306 28.7317L19.3119 30.0951L20.4402 31.5526L21.5686 32.963L22.791 34.4204L24.0133 35.8779L25.3297 37.3353L26.6461 38.7928L28.0095 40.2972L29.42 41.7547L27.5394 43.5882L26.129 42.0838L24.7185 40.5793L23.3551 39.0749L22.0857 37.5704L20.8164 36.113L19.594 34.6085L18.3716 33.1511L17.2433 31.6936L16.1619 30.2832L15.1276 28.8728L14.0933 27.5093L13.153 26.1459L12.2597 24.7825L11.4135 23.4661L10.6142 22.1967L9.86201 20.9743L9.20381 19.752L8.54561 18.5766L7.98144 17.4483L7.46428 16.3199L7.04115 15.2856L6.61802 14.2513L6.28892 13.264L6.05385 12.3237L5.86579 11.4304L5.72475 10.5372L5.67773 9.73792L5.72475 8.93867L5.86579 8.18644L6.10086 7.43421L6.47698 6.77601L6.94712 6.21184Z"/><path fill="#FEFEFE" d="M27.7743 27.9325L29.2788 26.522L30.7832 25.1586L32.2877 23.7952L33.7922 22.4788L35.2496 21.2094L36.7541 19.987L38.2115 18.8117L39.6219 17.6833L41.0794 16.555L42.4898 15.5207L43.8532 14.5334L45.2167 13.5931L46.5331 12.6998L47.8495 11.8536L49.1188 11.0543L50.3882 10.3021L51.6106 9.59688L52.786 8.98569L53.9143 8.42152L55.0426 7.90436L56.077 7.43422L57.1113 7.0581L58.0986 6.729L59.0389 6.44692L59.9321 6.25886L60.7784 6.16483L61.6247 6.0708L62.4239 6.11782L63.1761 6.25886L63.8813 6.49393L64.5866 6.87004L65.1507 7.3872L63.2702 9.17375L63.0821 9.0327L62.847 8.89166L62.5649 8.79763L62.1418 8.7036H61.6717L61.0605 8.75062L60.4023 8.84465L59.6501 8.98569L58.8508 9.22076L58.0046 9.50285L57.0643 9.87896L56.077 10.2551L55.0426 10.7722L53.9613 11.2894L52.88 11.9006L51.7046 12.5588L50.4823 13.264L49.2599 14.0162L47.9905 14.8625L46.6741 15.7087L45.3577 16.649L43.9943 17.6363L42.6309 18.6706L41.2204 19.705L39.81 20.8333L38.3996 22.0087L36.9421 23.231L35.4847 24.4534L34.0272 25.7228L32.5228 27.0862L31.0653 28.4496L29.5609 29.813L27.7743 27.9325ZM5.53655 64.3686L5.0664 63.7574L4.7373 63.0522L4.50223 62.347L4.4082 61.5947V60.7955L4.50223 59.9492L4.64327 59.103L4.87835 58.2097L5.20745 57.2694L5.58356 56.3291L6.00669 55.2948L6.52385 54.2605L7.08802 53.1792L7.69921 52.0508L8.35741 50.9225L9.10964 49.7471L9.90888 48.5248L10.7551 47.3024L11.6484 46.033L12.6357 44.7166L13.623 43.4002L14.7043 42.0838L15.8327 40.7204L16.961 39.357L18.1834 37.9465L19.4058 36.5361L20.7222 35.1257L22.0386 33.7152L23.402 32.2578L24.8124 30.8474L26.2699 29.3899L27.7743 27.9325L29.5609 29.813L28.1034 31.2705L26.693 32.6809L25.2826 34.0913L23.9192 35.5018L22.6028 36.9122L21.3804 38.2756L20.111 39.639L18.9356 41.0025L17.8073 42.3659L16.726 43.6823L15.6916 44.9987L14.7043 46.3151L13.7641 47.5374L12.9178 48.8068L12.0715 49.9822L11.3193 51.1576L10.6141 52.2859L9.9559 53.3672L9.34471 54.4486L8.82755 55.4359L8.35741 56.3761L7.98129 57.3164L7.65219 58.1627L7.37011 58.9619L7.18205 59.6671L7.08802 60.3254L6.99399 60.9365V61.4067L7.08802 61.8298L7.13503 62.1589L7.27608 62.394L7.41712 62.582L5.53655 64.3686ZM42.9129 43.7763L41.4085 45.1867L39.904 46.5972L38.3996 47.9606L36.8951 49.23L35.4377 50.4994L33.9332 51.7217L32.4758 52.9441L31.0653 54.0724L29.6079 55.1538L28.1975 56.1881L26.834 57.2224L25.4706 58.1627L24.1542 59.056L22.8378 59.9022L21.5214 60.7015L20.2991 61.4537L19.0767 62.1119L17.9013 62.7701L16.773 63.3343L15.6446 63.8514L14.6103 64.2746L13.576 64.6977L12.5887 65.0268L11.6484 65.2619L10.7551 65.4499L9.90888 65.591L9.06262 65.638L8.26338 65.591L7.51115 65.4499L6.75892 65.2148L6.10072 64.8387L5.53655 64.3686L7.41712 62.582L7.60518 62.7231L7.84025 62.8171L8.12234 62.9582L8.54547 63.0052L9.01561 63.0522L9.62679 63.0052L10.285 62.9111L11.0372 62.7231L11.8365 62.535L12.6827 62.2529L13.623 61.8768L14.6103 61.4537L15.6446 60.9836L16.726 60.4194L17.8073 59.8552L18.9826 59.197L20.205 58.4918L21.4274 57.6925L22.6968 56.8933L24.0132 56L25.3296 55.0597L26.693 54.1195L28.0564 53.0851L29.4668 52.0038L30.8773 50.8755L32.2877 49.7471L33.7452 48.5248L35.2026 47.2554L36.66 45.986L38.1645 44.6696L39.6219 43.3062L41.1264 41.8957L42.9129 43.7763ZM65.1507 7.3872L65.6209 7.99839L65.95 8.65659L66.185 9.40882L66.2791 10.161V10.9603L66.185 11.7595L66.044 12.6528L65.8089 13.5461L65.4798 14.4394L65.1037 15.4267L64.6806 16.414L64.1634 17.4483L63.5993 18.5296L62.9881 19.6579L62.3299 20.8333L61.5776 22.0087L60.7784 23.184L59.9321 24.4534L58.9919 25.7228L58.0516 26.9922L57.0643 28.3086L55.9829 29.672L54.8546 31.0354L53.7262 32.3988L52.5039 33.8093L51.2815 35.1727L49.9651 36.6301L48.6487 38.0406L47.2853 39.451L45.8749 40.9084L44.4174 42.3659L42.9129 43.7763L41.1264 41.8957L42.5838 40.4853L43.9943 39.0749L45.4047 37.6644L46.7681 36.254L48.0375 34.8436L49.3069 33.4331L50.5763 32.0697L51.7516 30.7063L52.88 29.3429L53.9613 28.0265L54.9956 26.7101L55.9829 25.4407L56.9232 24.1713L57.7695 22.9489L58.6157 21.7266L59.368 20.5982L60.0732 19.4699L60.7314 18.3415L61.3426 17.3072L61.8597 16.3199L62.3299 15.3326L62.706 14.4394L63.0351 13.5931L63.2702 12.7939L63.5052 12.0416L63.5993 11.3834L63.6933 10.8192V10.3021L63.5993 9.92598L63.5522 9.59688L63.4112 9.3618L63.2702 9.17375L65.1507 7.3872Z"/><path fill="#FEFEFE" fill-rule="evenodd" d="M32.6168 35.4547C32.5698 36.301 32.7108 36.9122 33.275 37.5234C34.0272 38.3226 35.2966 38.4636 36.3309 38.0875C37.2242 37.7584 37.9764 36.9122 38.0235 35.9249C38.0235 35.2196 38.0235 34.6555 37.6003 34.0443C36.566 32.5398 34.2153 32.6339 33.134 33.9503C32.8049 34.3734 32.6168 34.8905 32.6168 35.4547Z" clip-rule="evenodd"/><path fill="#FEFEFE" d="M122.602 31.1765C122.602 31.5526 122.414 31.7877 121.991 31.7877H104.173C103.797 31.7877 103.467 31.8818 103.232 32.1638L101.023 34.1855C100.929 34.3265 100.835 34.5146 100.835 34.7496V48.0547C100.835 48.3368 100.929 48.5718 101.117 48.7599L103.797 51.2987C103.938 51.4397 104.173 51.5337 104.408 51.5337H116.678C117.102 51.5337 117.337 51.2517 117.337 50.7345V40.6734C117.337 40.2503 117.572 40.0152 117.948 40.0152H123.025C123.449 40.0152 123.684 40.2503 123.684 40.6734V54.5897C123.684 55.4359 123.26 55.812 122.461 55.812H99.9884C99.5653 55.812 99.2362 55.718 98.9541 55.4829L93.4064 50.2644C93.1713 49.9823 93.0303 49.7002 93.0303 49.3241V32.634C93.0303 32.2579 93.1713 31.9758 93.4064 31.7407L97.4026 27.9325C97.6847 27.6034 98.0608 27.4624 98.4369 27.4624H121.991C122.414 27.4624 122.602 27.6975 122.602 28.1206V31.1765Z"/><path fill="#FEFEFE" d="M136.895 55.2011C136.895 55.6242 136.66 55.8123 136.237 55.8123H131.488C131.112 55.8123 130.877 55.6242 130.877 55.2011V33.9506C130.877 33.5275 131.112 33.2924 131.488 33.2924H136.237C136.66 33.2924 136.895 33.5275 136.895 33.9506V55.2011ZM136.895 30.4245C136.895 30.8476 136.66 31.0357 136.237 31.0357H131.488C131.112 31.0357 130.877 30.8476 130.877 30.4245V26.2402C130.877 25.7701 131.112 25.582 131.488 25.582H136.237C136.66 25.582 136.895 25.7701 136.895 26.2402V30.4245Z"/><path fill="#FEFEFE" d="M151.892 33.2924H157.017C157.393 33.2924 157.628 33.5275 157.628 33.9506V35.5021C157.628 35.8782 157.44 36.0662 157.017 36.1132L151.892 36.4423V55.2011C151.892 55.6242 151.704 55.8123 151.234 55.8123H146.533C146.11 55.8123 145.875 55.6242 145.875 55.2011V36.4423L143.289 36.1132C142.913 36.0662 142.725 35.8782 142.725 35.5021V33.9506C142.725 33.5275 142.913 33.2924 143.383 33.2924H146.063L146.909 26.2402C146.909 25.7701 147.191 25.582 147.708 25.582H151.234C151.704 25.582 151.892 25.7701 151.892 26.2402V33.2924Z"/><path fill="#FEFEFE" d="M187.858 35.7838C187.858 36.2539 187.67 36.442 187.2 36.442H170.933C170.698 36.442 170.463 36.536 170.275 36.724L169.147 37.9464C169.006 38.0875 168.912 38.2755 168.912 38.5106V40.4382C168.912 40.8143 169.006 41.0494 169.194 41.2374L169.993 42.2247C170.275 42.5068 170.51 42.6008 170.792 42.6008H184.097C184.708 42.6008 185.179 42.7889 185.555 43.165L187.811 45.4687C188.046 45.7038 188.187 46.1269 188.187 46.6441V51.6276C188.187 51.9097 188.093 52.1918 187.811 52.4268L184.802 55.3887C184.473 55.6708 184.097 55.8119 183.627 55.8119H163.599C163.176 55.8119 162.988 55.6238 162.988 55.2007V53.3201C162.988 52.897 163.176 52.6619 163.599 52.6619H180.101C180.43 52.6619 180.712 52.5679 180.947 52.3328L182.264 51.1104C182.405 50.9694 182.452 50.8283 182.452 50.6873V48.3366C182.452 48.1485 182.405 47.9605 182.264 47.8194L180.853 46.5971C180.712 46.456 180.524 46.409 180.289 46.409H166.937C166.608 46.409 166.326 46.268 166.091 46.0329L163.646 43.5881C163.411 43.3531 163.27 43.024 163.27 42.6478V37.4763C163.27 37.1472 163.364 36.8651 163.599 36.677L166.514 33.6211C166.749 33.386 167.031 33.292 167.36 33.292H187.2C187.67 33.292 187.858 33.5271 187.858 33.9502V35.7838Z"/><path fill="#FEFEFE" d="M220.251 36.7244C220.486 36.9125 220.627 37.1946 220.627 37.5707V55.2011C220.627 55.6242 220.392 55.8123 219.969 55.8123H215.268C214.798 55.8123 214.609 55.6242 214.609 55.2011V39.1692C214.609 38.9811 214.515 38.8401 214.374 38.699L212.87 37.1476C212.729 37.0065 212.541 36.9595 212.353 36.9595H201.21V55.2011C201.21 55.6242 201.022 55.8123 200.599 55.8123H195.757C195.334 55.8123 195.146 55.6242 195.146 55.2011V33.2454C195.146 32.7752 195.146 32.3521 195.193 31.929C195.193 31.5058 195.24 31.0357 195.287 30.5656L195.851 26.0992C195.851 25.7701 196.086 25.582 196.509 25.582H200.599C201.022 25.582 201.21 25.7701 201.21 26.2402V33.2924H216.114C216.49 33.2924 216.866 33.4334 217.195 33.6685L220.251 36.7244Z"/><path fill="#FEFEFE" d="M252.409 36.724C252.644 36.9591 252.785 37.2412 252.785 37.5703V51.5806C252.785 51.9097 252.644 52.1918 252.409 52.4268L249.306 55.4828C249.071 55.7178 248.789 55.8119 248.507 55.8119H231.676C231.394 55.8119 231.112 55.7178 230.83 55.4828L227.774 52.4268C227.539 52.1918 227.397 51.9097 227.397 51.5806V37.5703C227.397 37.2412 227.539 36.9591 227.774 36.724L230.83 33.6681C231.112 33.433 231.394 33.292 231.676 33.292H248.507C248.789 33.292 249.071 33.433 249.306 33.6681L252.409 36.724ZM235.484 36.9591C235.296 36.9591 235.155 37.0531 235.014 37.2412L233.697 38.7927C233.509 38.9807 233.415 39.1688 233.415 39.4979V49.3239C233.415 49.653 233.509 49.8881 233.697 50.0291L235.014 51.6276C235.155 51.8156 235.296 51.9097 235.484 51.9097H244.699C244.887 51.9097 245.028 51.8156 245.169 51.6276L246.485 50.0291C246.673 49.8881 246.72 49.653 246.72 49.3239V39.4979C246.72 39.1688 246.673 38.9807 246.485 38.7927L245.169 37.2412C245.028 37.0531 244.887 36.9591 244.699 36.9591H235.484Z"/><path fill="#FEFEFE" d="M282.639 36.442C282.639 36.9121 282.404 37.1002 281.981 37.1002H267.736C267.454 37.1002 267.266 37.1942 267.125 37.3352L265.667 38.7457C265.479 38.9337 265.432 39.1218 265.432 39.3568V49.0888C265.432 49.3239 265.479 49.5119 265.573 49.653L267.595 51.6276C267.736 51.8156 268.018 51.9567 268.347 51.9567H281.793C282.216 51.9567 282.451 52.1447 282.451 52.5679V55.2007C282.451 55.6238 282.216 55.8119 281.793 55.8119H264.68C264.304 55.8119 264.022 55.7178 263.834 55.4828L259.743 51.3455C259.649 51.2045 259.555 51.1104 259.508 50.9694C259.414 50.8283 259.367 50.6873 259.367 50.5463V37.5703C259.367 37.2412 259.508 36.9591 259.743 36.724L262.799 33.7151C263.081 33.433 263.363 33.292 263.645 33.292H281.981C282.404 33.292 282.639 33.5271 282.639 33.9502V36.442Z"/><path fill="#FEFEFE" d="M314.844 34.6088C314.844 34.8909 314.75 35.173 314.562 35.455L309.672 42.9303L315.549 53.9317C315.643 54.1197 315.69 54.3078 315.69 54.5429V55.1541C315.69 55.3421 315.643 55.5302 315.549 55.6712C315.455 55.7652 315.267 55.8123 314.985 55.8123H310.472C310.002 55.8123 309.672 55.6242 309.484 55.2481L304.125 45.4691H295.427V55.2011C295.427 55.6242 295.239 55.8123 294.816 55.8123H289.973C289.55 55.8123 289.362 55.6242 289.362 55.2011V33.2454C289.362 32.7752 289.362 32.3521 289.409 31.929C289.409 31.5058 289.456 31.0357 289.503 30.5656L290.068 26.0992C290.068 25.7701 290.303 25.582 290.726 25.582H294.816C295.239 25.582 295.427 25.7701 295.427 26.2402V41.849H304.078L308.544 33.8566C308.685 33.6685 308.826 33.4804 308.92 33.4334C309.061 33.3394 309.249 33.2924 309.531 33.2924H314.092C314.609 33.2924 314.844 33.4804 314.844 33.9036V34.6088Z"/><path fill="#FEFEFE" d="M358.943 31.1765C358.943 31.5526 358.755 31.7877 358.332 31.7877H342.864C342.582 31.7877 342.394 31.8347 342.253 32.0228L340.279 33.8564C340.091 34.0444 339.997 34.2325 339.997 34.4675V40.9085H358.05C358.473 40.9085 358.661 41.0966 358.661 41.5667V44.4816C358.661 44.9517 358.473 45.1398 358.05 45.1398H339.997V55.2009C339.997 55.624 339.809 55.812 339.338 55.812H332.85C332.427 55.812 332.239 55.624 332.239 55.2009V32.634C332.239 32.2579 332.333 31.9288 332.568 31.7407L336.518 27.9325C336.847 27.6034 337.176 27.4624 337.646 27.4624H358.332C358.755 27.4624 358.943 27.6975 358.943 28.1206V31.1765Z"/><path fill="#FEFEFE" d="M371.402 55.2011C371.402 55.6242 371.167 55.8123 370.744 55.8123H365.995C365.572 55.8123 365.384 55.6242 365.384 55.2011V33.9506C365.384 33.5275 365.572 33.2924 365.995 33.2924H370.744C371.167 33.2924 371.402 33.5275 371.402 33.9506V55.2011ZM371.402 30.4245C371.402 30.8476 371.167 31.0357 370.744 31.0357H365.995C365.572 31.0357 365.384 30.8476 365.384 30.4245V26.2402C365.384 25.7701 365.572 25.582 365.995 25.582H370.744C371.167 25.582 371.402 25.7701 371.402 26.2402V30.4245Z"/><path fill="#FEFEFE" d="M403.889 36.724C404.124 36.9591 404.265 37.2412 404.265 37.6643V55.2007C404.265 55.6238 404.03 55.8119 403.607 55.8119H398.906C398.436 55.8119 398.248 55.6238 398.248 55.2007V39.2158C398.248 39.0277 398.154 38.8397 398.013 38.6986L396.508 37.1472C396.367 37.0061 396.179 36.9591 395.991 36.9591H389.879C389.55 36.9591 389.174 37.0061 388.845 37.0531L385.413 37.9464C385.037 37.9934 384.849 38.2755 384.849 38.6516V55.2007C384.849 55.6238 384.66 55.8119 384.237 55.8119H379.395C378.972 55.8119 378.784 55.6238 378.784 55.2007V36.724C378.784 36.0188 379.066 35.5957 379.63 35.4076L386.118 33.5271C386.635 33.386 387.152 33.292 387.622 33.292H399.94C400.316 33.292 400.598 33.433 400.833 33.6681L403.889 36.724Z"/><path fill="#FEFEFE" d="M435.812 37.7584C435.859 37.8054 435.906 37.9464 436 38.1345C436.094 38.3225 436.141 38.4636 436.141 38.6046V54.5895C436.141 55.4357 435.718 55.8119 434.919 55.8119H415.878C415.549 55.8119 415.173 55.7178 414.844 55.4828L411.553 52.4268C411.318 52.2388 411.224 51.9567 411.224 51.5806V43.9172C411.224 43.118 411.6 42.6949 412.352 42.6949H430.076V39.6389C430.076 39.4039 429.982 39.1688 429.794 38.9807L427.914 37.0061C427.773 36.9121 427.585 36.8181 427.35 36.8181H411.835C411.412 36.8181 411.224 36.583 411.224 36.1599V33.9502C411.224 33.5271 411.412 33.292 411.835 33.292H430.829C431.158 33.292 431.44 33.433 431.675 33.6681L435.812 37.7584ZM417.477 45.2806C417.006 45.2806 416.771 45.5157 416.771 45.9859V49.747C416.771 50.0761 416.912 50.3582 417.1 50.5933L418.558 51.8627C418.793 52.0507 419.028 52.1918 419.31 52.1918H429.418C429.888 52.1918 430.076 51.9567 430.076 51.4865V45.2806H417.477Z"/><path fill="#FEFEFE" d="M468.393 36.724C468.628 36.9591 468.769 37.2412 468.769 37.6643V55.2007C468.769 55.6238 468.534 55.8119 468.111 55.8119H463.362C462.939 55.8119 462.704 55.6238 462.704 55.2007V39.2158C462.704 39.0277 462.657 38.8397 462.516 38.6986L461.012 37.1472C460.87 37.0061 460.682 36.9591 460.447 36.9591H454.382C454.053 36.9591 453.677 37.0061 453.301 37.0531L449.916 37.9464C449.54 37.9934 449.352 38.2755 449.352 38.6516V55.2007C449.352 55.6238 449.117 55.8119 448.741 55.8119H443.898C443.475 55.8119 443.287 55.6238 443.287 55.2007V36.724C443.287 36.0188 443.569 35.5957 444.133 35.4076L450.621 33.5271C451.139 33.386 451.656 33.292 452.126 33.292H464.444C464.82 33.292 465.102 33.433 465.29 33.6681L468.393 36.724Z"/><path fill="#FEFEFE" d="M498.764 36.442C498.764 36.9121 498.576 37.1002 498.106 37.1002H483.861C483.626 37.1002 483.437 37.1942 483.249 37.3352L481.792 38.7457C481.651 38.9337 481.557 39.1218 481.557 39.3568V49.0888C481.557 49.3239 481.604 49.5119 481.745 49.653L483.767 51.6276C483.908 51.8156 484.143 51.9567 484.472 51.9567H497.965C498.388 51.9567 498.623 52.1447 498.623 52.5679V55.2007C498.623 55.6238 498.388 55.8119 497.965 55.8119H480.852C480.476 55.8119 480.193 55.7178 479.958 55.4828L475.915 51.3455C475.774 51.2045 475.727 51.1104 475.633 50.9694C475.586 50.8283 475.539 50.6873 475.539 50.5463V37.5703C475.539 37.2412 475.633 36.9591 475.915 36.724L478.924 33.7151C479.206 33.433 479.488 33.292 479.817 33.292H498.106C498.576 33.292 498.764 33.5271 498.764 33.9502V36.442Z"/><path fill="#FEFEFE" d="M530.123 44.9515C530.123 45.7508 529.747 46.1269 528.947 46.1269H511.27V49.3239C511.27 49.653 511.317 49.8881 511.458 49.9821L513.574 52.1447C513.715 52.2388 513.903 52.2858 514.185 52.2858H529.464C529.935 52.2858 530.123 52.5209 530.123 52.944V55.2007C530.123 55.6238 529.935 55.8119 529.464 55.8119H510.518C510.142 55.8119 509.859 55.7178 509.671 55.4828L505.534 51.2985C505.346 51.1104 505.205 50.8283 505.205 50.5463V37.5703C505.205 37.2412 505.346 36.9591 505.581 36.724L508.59 33.7621C508.872 33.433 509.201 33.292 509.53 33.292H528.947C529.747 33.292 530.123 33.6681 530.123 34.4674V44.9515ZM513.574 36.9591C513.339 36.9591 513.151 37.0061 512.962 37.1942L511.552 38.6046C511.364 38.7927 511.27 39.0277 511.27 39.3098V43.4471H523.87C524.34 43.4471 524.575 43.212 524.575 42.8359V37.6173C524.575 37.1472 524.34 36.9591 523.87 36.9591H513.574Z"/><path fill="#FEFEFE" fill-rule="evenodd" d="M250.027 26.6828L253.691 29.0739L229.754 63.1908L226.09 60.7997L250.027 26.6828Z" clip-rule="evenodd"/></svg>